<?xml version="1.0" encoding="UTF-8" standalone="no"?>
<!-- Created with Inkscape (http://www.inkscape.org/) -->

<svg
   xmlns:dc="http://purl.org/dc/elements/1.1/"
   xmlns:cc="http://creativecommons.org/ns#"
   xmlns:rdf="http://www.w3.org/1999/02/22-rdf-syntax-ns#"
   xmlns:svg="http://www.w3.org/2000/svg"
   xmlns="http://www.w3.org/2000/svg"
   xmlns:xlink="http://www.w3.org/1999/xlink"
   xmlns:sodipodi="http://sodipodi.sourceforge.net/DTD/sodipodi-0.dtd"
   xmlns:inkscape="http://www.inkscape.org/namespaces/inkscape"
   width="1366"
   height="768"
   id="svg3184"
   version="1.1"
   inkscape:version="0.48.3.1 r9886"
   inkscape:export-filename="/tmp/slide-bg.png"
   inkscape:export-xdpi="90"
   inkscape:export-ydpi="90"
   sodipodi:docname="Documento nuevo 2">
  <defs
     id="defs3186">
    <linearGradient
       inkscape:collect="always"
       id="linearGradient4029">
      <stop
         style="stop-color:#ffffff;stop-opacity:1;"
         offset="0"
         id="stop4031" />
      <stop
         style="stop-color:#ffffff;stop-opacity:0;"
         offset="1"
         id="stop4033" />
    </linearGradient>
    <linearGradient
       inkscape:collect="always"
       id="linearGradient4021">
      <stop
         style="stop-color:#478b05;stop-opacity:1;"
         offset="0"
         id="stop4023" />
      <stop
         style="stop-color:#397004;stop-opacity:1"
         offset="1"
         id="stop4025" />
    </linearGradient>
    <linearGradient
       inkscape:collect="always"
       xlink:href="#linearGradient4021"
       id="linearGradient4027"
       x1="236.21179"
       y1="327.24689"
       x2="236.21179"
       y2="980.5979"
       gradientUnits="userSpaceOnUse" />
    <linearGradient
       inkscape:collect="always"
       xlink:href="#linearGradient4029"
       id="linearGradient4035"
       x1="172.12332"
       y1="740.53351"
       x2="770.89282"
       y2="738.70239"
       gradientUnits="userSpaceOnUse"
       gradientTransform="translate(-1343.9844,284.36218)" />
  </defs>
  <sodipodi:namedview
     id="base"
     pagecolor="#ffffff"
     bordercolor="#666666"
     borderopacity="1.0"
     inkscape:pageopacity="0.0"
     inkscape:pageshadow="2"
     inkscape:zoom="0.54612006"
     inkscape:cx="382.69973"
     inkscape:cy="384"
     inkscape:document-units="px"
     inkscape:current-layer="layer1"
     showgrid="false"
     borderlayer="true"
     inkscape:window-width="1916"
     inkscape:window-height="1161"
     inkscape:window-x="0"
     inkscape:window-y="18"
     inkscape:window-maximized="0" />
  <metadata
     id="metadata3189">
    <rdf:RDF>
      <cc:Work
         rdf:about="">
        <dc:format>image/svg+xml</dc:format>
        <dc:type
           rdf:resource="http://purl.org/dc/dcmitype/StillImage" />
        <dc:title></dc:title>
      </cc:Work>
    </rdf:RDF>
  </metadata>
  <g
     inkscape:label="Capa 1"
     inkscape:groupmode="layer"
     id="layer1"
     transform="translate(0,-284.36218)">
    <rect
       style="fill:url(#linearGradient4027);fill-opacity:1;stroke:none"
       id="rect3192"
       width="1395.2976"
       height="794.69702"
       x="-10.986595"
       y="270.48282" />
    <rect
       style="fill:url(#linearGradient4035);fill-opacity:1;stroke:none"
       id="rect3251"
       width="1416.4922"
       height="93.22435"
       x="-1380.2383"
       y="974.67523"
       transform="scale(-1,1)" />
    <g
       id="g3175"
       transform="matrix(0.27447612,0,0,0.27447612,712.08451,575.79931)">
      <g
         id="g3177"
         transform="translate(-2.3674027,0)">
        <path
           inkscape:export-ydpi="30.35"
           inkscape:export-xdpi="30.35"
           inkscape:export-filename="/tmp/path3177.png"
           inkscape:connector-curvature="0"
           id="path3179"
           d="m 2150.875,1482.125 c -18.1415,-0.5508 -33.8952,14.3811 -37.6875,31.5312 -13.2782,-3.6186 -27.5319,-3.0481 -40.875,0.094 -3.2321,-18.4421 -21.3316,-34.8923 -40.8125,-31.0625 -15.1627,2.0853 -29.1151,13.4263 -32.6562,28.5 -15.7245,-0.4597 -31.2418,4.7281 -44.0313,13.7187 -23.1998,-20.1916 -59.4698,-23.0151 -86.0313,-8.5 -13.1494,-8.4222 -31.3388,-6.7214 -43.8437,2.25 -13.2252,-10.5315 -33.7209,-10.2347 -46.9063,0.1876 -17.8876,-15.1129 -49.98,-7.9491 -57.8437,14.8124 -7.0222,17.7188 -1.0097,37.1359 -3.4839,55.5624 -0.4937,22.2612 5.7743,47.1395 25.3276,60.0314 17.363,12.5224 41.0089,14.1837 60.8438,7.6562 21.0739,8.0392 46.3241,3.0163 63.1562,-11.6562 19.2928,12.5663 44.0326,13.5585 66.125,10 10.2924,3.627 21.7128,0.6955 31.1876,-3.0625 25.8685,13.6079 59.8944,10.5479 82.5,-7.9063 26.3953,21.5031 68.4381,22.2145 94.4062,-0.1562 25.9703,21.0007 66.6141,22.3074 93.0312,1.5 33.0314,26.1587 88.5246,16.9387 109.4971,-20.0366 19.4368,-31.1793 12.4877,-77.0594 -17.8404,-98.8693 -25.8836,-20.2132 -66.1977,-21.3053 -91.6567,0.062 -12.8297,-10.9127 -30.0773,-15.1376 -46.5624,-15.9374 -4.3731,-15.665 -18.827,-29.5044 -35.8438,-28.7188 z"
           style="font-size:177.3453064px;font-style:normal;font-variant:normal;font-weight:300;font-stretch:normal;text-align:center;line-height:100%;letter-spacing:0px;word-spacing:0px;writing-mode:lr-tb;text-anchor:middle;fill:#4e9a06;fill-opacity:1;stroke:none;font-family:'Arista 2.0 Light';-inkscape-font-specification:'Arista 2.0 Light, Light'" />
        <g
           inkscape:export-ydpi="30.35"
           inkscape:export-xdpi="30.35"
           inkscape:export-filename="/tmp/g3207.png"
           style="fill:#ffffff;fill-opacity:1"
           id="g3181">
          <path
             d="m 1796.1656,1548.2743 c -10e-5,-1.5369 0.5319,-2.8374 1.5961,-3.9016 1.064,-1.064 2.3645,-1.596 3.9016,-1.5961 1.5369,10e-5 2.8374,0.5321 3.9016,1.5961 1.064,1.0642 1.596,2.3647 1.5961,3.9016 l 0,51.4301 c -10e-5,2.4829 0.4728,4.8475 1.4187,7.0938 0.9458,2.1282 2.1872,4.0199 3.7243,5.6751 1.6551,1.6552 3.5468,2.9558 5.675,3.9016 2.2463,0.9458 4.6109,1.4188 7.0939,1.4188 2.4827,0 4.7882,-0.473 6.9164,-1.4188 2.2463,-0.9458 4.1971,-2.2464 5.8524,-3.9016 1.6551,-1.6552 2.9557,-3.5469 3.9016,-5.6751 0.9458,-2.2463 1.4187,-4.6109 1.4188,-7.0938 l 0,-51.4301 c -10e-5,-1.5369 0.5319,-2.8375 1.5961,-3.9016 1.064,-1.064 2.3645,-1.596 3.9016,-1.5961 1.5369,10e-5 2.8374,0.5321 3.9016,1.5961 1.0639,1.0641 1.596,2.3647 1.5961,3.9016 l 0,51.4301 c -10e-5,4.0199 -0.7686,7.8032 -2.3055,11.3501 -1.5371,3.5469 -3.6061,6.6209 -6.2071,9.222 -2.6011,2.6011 -5.6751,4.6701 -9.2219,6.2071 -3.547,1.537 -7.3304,2.3055 -11.3501,2.3055 -4.9658,0 -9.4585,-1.0641 -13.4783,-3.1923 -4.0199,-2.2463 -7.3894,-5.2021 -10.1087,-8.8672 -2.6011,3.6651 -5.9115,6.6209 -9.9313,8.8672 -4.0199,2.1282 -8.5126,3.1923 -13.4783,3.1923 -4.0198,0 -7.8032,-0.7685 -11.3501,-2.3055 -3.5469,-1.537 -6.6209,-3.606 -9.2219,-6.2071 -2.6011,-2.6011 -4.6701,-5.6751 -6.2071,-9.222 -1.4188,-3.5469 -2.1281,-7.3302 -2.1281,-11.3501 l 0,-51.4301 c 0,-1.5369 0.532,-2.8375 1.5961,-3.9016 1.064,-1.064 2.3646,-1.596 3.9016,-1.5961 1.5369,10e-5 2.8375,0.5321 3.9016,1.5961 1.064,1.0641 1.5961,2.3647 1.5961,3.9016 l 0,51.4301 c 0,2.4829 0.4729,4.8475 1.4187,7.0938 0.9459,2.1282 2.1873,4.0199 3.7243,5.6751 1.6552,1.6552 3.5469,2.9558 5.675,3.9016 2.2464,0.9458 4.611,1.4188 7.0938,1.4188 4.8474,0 8.9855,-1.7144 12.4142,-5.1431 3.5469,-3.4286 5.4386,-7.744 5.6751,-12.9462 l 0,-51.4301"
             style="font-size:177.3453064px;font-style:normal;font-variant:normal;font-weight:300;font-stretch:normal;text-align:center;line-height:100%;letter-spacing:0px;word-spacing:0px;writing-mode:lr-tb;text-anchor:middle;fill:#ffffff;fill-opacity:1;stroke:none;font-family:'Arista 2.0 Light';-inkscape-font-specification:'Arista 2.0 Light, Light'"
             id="path3183"
             inkscape:connector-curvature="0" />
          <path
             d="m 1998.0815,1542.9539 c 6.6209,0.2366 12.6506,1.9509 18.0892,5.1431 5.4386,3.074 10.1087,6.7391 14.0103,10.9954 l 0,-39.1934 c -10e-5,-1.5368 0.532,-2.8374 1.5961,-3.9016 1.064,-1.0639 2.3645,-1.596 3.9016,-1.5961 1.5369,10e-5 2.8375,0.5322 3.9016,1.5961 1.064,1.0642 1.596,2.3648 1.5961,3.9016 l 0,66.1498 c -10e-5,6.1481 -1.1233,11.8231 -3.3695,17.0252 -2.2465,5.2021 -5.3205,9.6949 -9.222,13.4782 -3.9017,3.7834 -8.4535,6.7392 -13.6556,8.8673 -5.2022,2.1282 -10.6999,3.1922 -16.4931,3.1922 -6.0298,0 -11.6457,-1.1232 -16.8478,-3.3695 -5.2022,-2.2464 -9.754,-5.3204 -13.6556,-9.222 -3.7834,-3.9016 -6.7982,-8.3943 -9.0446,-13.4782 -2.2464,-5.2021 -3.3696,-10.6998 -3.3696,-16.4932 0,-5.9114 1.1232,-11.4682 3.3696,-16.6704 2.3646,-5.2021 5.4977,-9.7539 9.3993,-13.6556 3.9016,-3.9015 8.3943,-6.9755 13.4783,-9.222 5.202,-2.3645 10.6406,-3.5468 16.3157,-3.5469 m 32.0995,43.0949 c -0.2365,-4.6109 -1.2415,-8.8672 -3.0148,-12.7688 -1.6553,-3.9016 -3.9017,-7.2711 -6.7392,-10.1087 -2.8376,-2.8375 -6.148,-5.0247 -9.9313,-6.5618 -3.7834,-1.6551 -7.8033,-2.4827 -12.0595,-2.4828 -4.3746,10e-5 -8.5126,0.8277 -12.4142,2.4828 -3.9016,1.6553 -7.3303,3.9608 -10.286,6.9165 -2.8375,2.8376 -5.0839,6.2071 -6.7391,10.1087 -1.6553,3.9016 -2.4829,8.0397 -2.4829,12.4141 0,4.3746 0.8276,8.5127 2.4829,12.4142 1.6552,3.7834 3.9016,7.153 6.7391,10.1087 2.9557,2.8375 6.3844,5.0839 10.286,6.7391 3.9016,1.6552 8.0396,2.4829 12.4142,2.4829 4.3745,0 8.4534,-0.8276 12.2368,-2.4829 3.9016,-1.6552 7.2711,-3.9016 10.1087,-6.7391 2.9557,-2.9557 5.2612,-6.3253 6.9165,-10.1087 1.6551,-3.9015 2.4827,-8.0396 2.4828,-12.4142"
             style="font-size:177.3453064px;font-style:normal;font-variant:normal;font-weight:300;font-stretch:normal;text-align:center;line-height:100%;letter-spacing:0px;word-spacing:0px;writing-mode:lr-tb;text-anchor:middle;fill:#ffffff;fill-opacity:1;stroke:none;font-family:'Arista 2.0 Light';-inkscape-font-specification:'Arista 2.0 Light, Light'"
             id="path3185"
             inkscape:connector-curvature="0" />
          <path
             d="m 2093.5792,1542.9539 c 5.675,10e-5 11.0544,1.1824 16.1384,3.5469 5.2021,2.2465 9.7539,5.3205 13.6556,9.222 3.9015,3.9017 6.9755,8.4535 9.222,13.6556 2.3645,5.2022 3.5468,10.759 3.5469,16.6704 -1e-4,5.7934 -1.1233,11.2911 -3.3696,16.4932 -2.2465,5.0839 -5.3204,9.5766 -9.2219,13.4782 -3.7835,3.9016 -8.2762,6.9756 -13.4783,9.222 -5.2022,2.2463 -10.8181,3.3695 -16.8478,3.3695 -5.9115,0 -11.4684,-1.0641 -16.6705,-3.1922 -5.0839,-2.1281 -9.5766,-5.0839 -13.4782,-8.8673 -3.9016,-3.7833 -6.9756,-8.2761 -9.222,-13.4782 -2.2463,-5.2021 -3.3695,-10.8771 -3.3695,-17.0252 0,-5.9114 1.0641,-11.4091 3.1922,-16.4931 2.2464,-5.202 5.2612,-9.6948 9.0446,-13.4782 3.9016,-3.9015 8.4534,-6.9755 13.6556,-9.222 5.3203,-2.3645 11.0545,-3.665 17.2025,-3.9016 m -32.0995,43.0949 c 0,4.3746 0.8276,8.5127 2.4828,12.4142 1.6552,3.7834 3.9016,7.153 6.7391,10.1087 2.9558,2.8375 6.3253,5.0839 10.1087,6.7391 3.9016,1.6552 8.0396,2.4829 12.4142,2.4829 4.3745,0 8.5125,-0.8276 12.4142,-2.4829 3.9015,-1.6552 7.2711,-3.9016 10.1087,-6.7391 2.9556,-2.9557 5.2611,-6.3253 6.9164,-10.1087 1.6552,-3.9015 2.4828,-8.0396 2.4829,-12.4142 -10e-5,-4.3744 -0.8277,-8.5125 -2.4829,-12.4141 -1.6553,-3.9016 -3.9608,-7.2711 -6.9164,-10.1087 -2.8376,-2.9557 -6.2072,-5.2612 -10.1087,-6.9165 -3.9017,-1.6551 -8.0397,-2.4827 -12.4142,-2.4828 -4.3746,10e-5 -8.5126,0.8277 -12.4142,2.4828 -3.7834,1.6553 -7.1529,3.9608 -10.1087,6.9165 -2.8375,2.8376 -5.0839,6.2071 -6.7391,10.1087 -1.6552,3.9016 -2.4828,8.0397 -2.4828,12.4141"
             style="font-size:177.3453064px;font-style:normal;font-variant:normal;font-weight:300;font-stretch:normal;text-align:center;line-height:100%;letter-spacing:0px;word-spacing:0px;writing-mode:lr-tb;text-anchor:middle;fill:#ffffff;fill-opacity:1;stroke:none;font-family:'Arista 2.0 Light';-inkscape-font-specification:'Arista 2.0 Light, Light'"
             id="path3187"
             inkscape:connector-curvature="0" />
          <path
             d="m 2188.1652,1542.9539 c 5.675,10e-5 11.0545,1.1824 16.1384,3.5469 5.2021,2.2465 9.7539,5.3205 13.6556,9.222 3.9015,3.9017 6.9755,8.4535 9.222,13.6556 2.3645,5.2022 3.5468,10.759 3.5469,16.6704 -10e-5,5.7934 -1.1233,11.2911 -3.3696,16.4932 -2.2464,5.0839 -5.3204,9.5766 -9.2219,13.4782 -3.7835,3.9016 -8.2762,6.9756 -13.4783,9.222 -5.2022,2.2463 -10.8181,3.3695 -16.8478,3.3695 -5.9115,0 -11.4683,-1.0641 -16.6704,-3.1922 -5.084,-2.1281 -9.5767,-5.0839 -13.4783,-8.8673 -3.9016,-3.7833 -6.9756,-8.2761 -9.2219,-13.4782 -2.2464,-5.2021 -3.3696,-10.8771 -3.3696,-17.0252 l 0,-66.3271 c 0,-1.5369 0.532,-2.8374 1.5961,-3.9016 1.0641,-1.064 2.3646,-1.596 3.9016,-1.5961 1.537,10e-5 2.8375,0.5321 3.9016,1.5961 1.0641,1.0642 1.5961,2.3647 1.5961,3.9016 l 0,39.3707 c 3.9016,-4.2563 8.5717,-7.9214 14.0103,-10.9954 5.4385,-3.1922 11.4683,-4.9065 18.0892,-5.1431 m -32.0995,43.0949 c 0,4.3746 0.8276,8.5127 2.4828,12.4142 1.6552,3.7834 3.9016,7.153 6.7392,10.1087 2.9557,2.8375 6.3252,5.0839 10.1086,6.7391 3.9016,1.6553 8.0396,2.4829 12.4142,2.4829 4.3745,0 8.5125,-0.8276 12.4142,-2.4829 3.9015,-1.6552 7.2711,-3.9016 10.1087,-6.7391 2.9556,-2.9557 5.2611,-6.3253 6.9164,-10.1087 1.6552,-3.9015 2.4828,-8.0396 2.4829,-12.4142 -1e-4,-4.3744 -0.8277,-8.5125 -2.4829,-12.4141 -1.6553,-3.9016 -3.9608,-7.2711 -6.9164,-10.1087 -2.8376,-2.9557 -6.2072,-5.2612 -10.1087,-6.9165 -3.9017,-1.6551 -8.0397,-2.4827 -12.4142,-2.4828 -4.2563,10e-5 -8.2761,0.8277 -12.0595,2.4828 -3.7834,1.5371 -7.0938,3.7243 -9.9313,6.5618 -2.8375,2.8376 -5.143,6.2071 -6.9165,10.1087 -1.7734,3.9016 -2.7193,8.1579 -2.8375,12.7688"
             style="font-size:177.3453064px;font-style:normal;font-variant:normal;font-weight:300;font-stretch:normal;text-align:center;line-height:100%;letter-spacing:0px;word-spacing:0px;writing-mode:lr-tb;text-anchor:middle;fill:#ffffff;fill-opacity:1;stroke:none;font-family:'Arista 2.0 Light';-inkscape-font-specification:'Arista 2.0 Light, Light'"
             id="path3189"
             inkscape:connector-curvature="0" />
          <path
             d="m 2279.2375,1542.9539 c 5.675,10e-5 11.0545,1.1824 16.1385,3.5469 5.202,2.2465 9.7539,5.3205 13.6556,9.222 3.9015,3.9017 6.9755,8.4535 9.2219,13.6556 2.3645,5.2022 3.5468,10.759 3.5469,16.6704 -1e-4,5.7934 -1.1233,11.2911 -3.3695,16.4932 -2.2465,5.0839 -5.3205,9.5766 -9.222,13.4782 -3.7834,3.9016 -8.2762,6.9756 -13.4782,9.222 -5.2022,2.2463 -10.8182,3.3695 -16.8478,3.3695 -5.9116,0 -11.4684,-1.0641 -16.6705,-3.1922 -5.0839,-2.1281 -9.5767,-5.0839 -13.4782,-8.8673 -3.9017,-3.7833 -6.9756,-8.2761 -9.222,-13.4782 -2.2464,-5.2021 -3.3696,-10.8771 -3.3696,-17.0252 0,-5.9114 1.0641,-11.4091 3.1923,-16.4931 2.2463,-5.202 5.2612,-9.6948 9.0446,-13.4782 3.9015,-3.9015 8.4534,-6.9755 13.6556,-9.222 5.3203,-2.3645 11.0544,-3.665 17.2024,-3.9016 m -32.0995,43.0949 c 0,4.3746 0.8276,8.5127 2.4829,12.4142 1.6552,3.7834 3.9016,7.153 6.7391,10.1087 2.9557,2.8375 6.3253,5.0839 10.1087,6.7391 3.9015,1.6552 8.0396,2.4829 12.4142,2.4829 4.3744,0 8.5125,-0.8276 12.4141,-2.4829 3.9016,-1.6552 7.2711,-3.9016 10.1087,-6.7391 2.9557,-2.9557 5.2612,-6.3253 6.9165,-10.1087 1.6551,-3.9015 2.4827,-8.0396 2.4828,-12.4142 -10e-5,-4.3744 -0.8277,-8.5125 -2.4828,-12.4141 -1.6553,-3.9016 -3.9608,-7.2711 -6.9165,-10.1087 -2.8376,-2.9557 -6.2071,-5.2612 -10.1087,-6.9165 -3.9016,-1.6551 -8.0397,-2.4827 -12.4141,-2.4828 -4.3746,10e-5 -8.5127,0.8277 -12.4142,2.4828 -3.7834,1.6553 -7.153,3.9608 -10.1087,6.9165 -2.8375,2.8376 -5.0839,6.2071 -6.7391,10.1087 -1.6553,3.9016 -2.4829,8.0397 -2.4829,12.4141"
             style="font-size:177.3453064px;font-style:normal;font-variant:normal;font-weight:300;font-stretch:normal;text-align:center;line-height:100%;letter-spacing:0px;word-spacing:0px;writing-mode:lr-tb;text-anchor:middle;fill:#ffffff;fill-opacity:1;stroke:none;font-family:'Arista 2.0 Light';-inkscape-font-specification:'Arista 2.0 Light, Light'"
             id="path3191"
             inkscape:connector-curvature="0" />
          <path
             style="font-size:177.3453064px;font-style:normal;font-variant:normal;font-weight:300;font-stretch:normal;text-align:center;line-height:100%;letter-spacing:0px;word-spacing:0px;writing-mode:lr-tb;text-anchor:middle;fill:#ffffff;fill-opacity:1;stroke:none;font-family:'Arista 2.0 Light';-inkscape-font-specification:'Arista 2.0 Light, Light'"
             d="m 1906.5312,1538.9688 c -6.1479,0.2365 -11.8671,1.5105 -17.1874,3.875 -5.2023,2.2465 -9.7547,5.3172 -13.6563,9.2187 -3.7834,3.7834 -6.8161,8.2979 -9.0625,13.5 -2.1282,5.0839 -3.1875,10.5885 -3.1875,16.5 0,6.148 1.1286,11.7979 3.375,17 2.2464,5.2022 5.3172,9.7167 9.2187,13.5 3.9017,3.7834 8.3849,6.7155 13.4688,8.8437 5.2021,2.1281 10.7759,3.2188 16.6875,3.2188 6.3844,0 13.0559,0.8069 18.4687,-2.3125 5.1304,-3.5578 10.1206,-10.68 15.0313,1.0625 1.064,1.0641 2.3692,1.5938 3.9063,1.5938 1.537,0 2.842,-0.5297 3.9062,-1.5938 1.064,-1.0641 1.5938,-2.3691 1.5938,-3.9062 l 0,-37.4063 c 0,-5.9115 -1.1668,-11.4853 -3.5313,-16.6875 -2.2465,-5.2021 -5.3173,-9.7547 -9.2187,-13.6562 -3.9018,-3.9017 -8.4542,-6.9723 -13.6563,-9.2188 -5.0839,-2.3645 -10.4813,-3.5312 -16.1563,-3.5312 z m -25.75,28.1874 c 6.6803,0 12.0938,5.4137 12.0938,12.0938 0,6.6801 -5.4135,12.0938 -12.0938,12.0938 -6.68,0 -12.0937,-5.4137 -12.0937,-12.0938 0,-6.6801 5.4137,-12.0938 12.0937,-12.0938 z m 34,0 c 6.6803,0 12.0938,5.4137 12.0938,12.0938 0,6.6801 -5.4135,12.0938 -12.0938,12.0938 -6.68,0 -12.0937,-5.4137 -12.0937,-12.0938 0,-6.6801 5.4137,-12.0938 12.0937,-12.0938 z"
             id="path3193"
             inkscape:connector-curvature="0" />
          <path
             transform="matrix(-0.36911016,0,0,0.36911016,1993.239,1105.7304)"
             d="m 234.51724,1282.8447 c 0,6.1279 -4.9676,11.0955 -11.09544,11.0955 -6.12784,0 -11.09544,-4.9676 -11.09544,-11.0955 0,-6.1278 4.9676,-11.0954 11.09544,-11.0954 6.12784,0 11.09544,4.9676 11.09544,11.0954 z"
             sodipodi:ry="11.095439"
             sodipodi:rx="11.095439"
             sodipodi:cy="1282.8447"
             sodipodi:cx="223.4218"
             id="path3195"
             style="fill:#ffffff;fill-opacity:1"
             sodipodi:type="arc" />
          <path
             sodipodi:type="arc"
             style="fill:#ffffff;fill-opacity:1"
             id="path3197"
             sodipodi:cx="223.4218"
             sodipodi:cy="1282.8447"
             sodipodi:rx="11.095439"
             sodipodi:ry="11.095439"
             d="m 234.51724,1282.8447 c 0,6.1279 -4.9676,11.0955 -11.09544,11.0955 -6.12784,0 -11.09544,-4.9676 -11.09544,-11.0955 0,-6.1278 4.9676,-11.0954 11.09544,-11.0954 6.12784,0 11.09544,4.9676 11.09544,11.0954 z"
             transform="matrix(-0.36911016,0,0,0.36911016,1957.239,1105.7304)" />
        </g>
      </g>
      <text
         xml:space="preserve"
         style="font-size:52.34957504px;font-style:normal;font-variant:normal;font-weight:300;font-stretch:normal;text-align:center;line-height:100%;letter-spacing:0px;word-spacing:0px;writing-mode:lr-tb;text-anchor:middle;fill:#888a85;fill-opacity:1;stroke:none;font-family:'Arista 2.0 Light';-inkscape-font-specification:'Arista 2.0 Light, Light'"
         x="2032.7943"
         y="1697.4775"
         id="text3199"
         sodipodi:linespacing="100%"><tspan
           sodipodi:role="line"
           id="tspan3201"
           x="2032.7943"
           y="1697.4775">it isn't magic, it's wadobo!</tspan></text>
    </g>
  </g>
</svg>
